<svg xmlns="http://www.w3.org/2000/svg" xmlns:xlink="http://www.w3.org/1999/xlink"><defs><style>
    .sprite-symbol-usage {display: none;}
    .sprite-symbol-usage:target {display: inline;}
  </style><symbol viewBox="0 0 16 16" id="aside-19"><defs><circle id="aside-19_a" cx="9" cy="8" r="8" /></defs><g fill="none" fill-rule="evenodd"><g transform="translate(-1)"><use fill="#FFF" xlink:href="#aside-19_a" /><circle cx="9" cy="8" r="7.5" stroke="#FF4947" /></g><path fill="#333" d="M6.469 11.234H5.317V6.041l-1.476.846-.558-.936 2.169-1.206h1.017v6.489zm1.242-.351l.423-.954c.405.234.846.36 1.377.36.837 0 1.296-.432 1.359-1.818-.315.369-.9.567-1.458.567-1.26 0-2.025-.819-2.025-2.079v-.18c0-1.206.864-2.133 2.304-2.133 1.656 0 2.322 1.08 2.322 2.745v.414c0 2.862-1.035 3.528-2.574 3.528-.585 0-1.242-.126-1.728-.45zm3.141-3.942v-.135c0-.702-.396-1.116-1.134-1.116-.792 0-1.197.405-1.197 1.125v.099c0 .756.36 1.116 1.152 1.116.828 0 1.179-.495 1.179-1.089z" /></g></symbol><symbol viewBox="0 0 11 11" id="aside-bean-put"><g fill="none" fill-rule="evenodd"><path stroke="#03C75A" d="M9 4L5.5 7.474 2 4" /><path fill="#03C75A" d="M5 0h1v7H5z" /><path stroke="#03C75A" d="M10 7v3H1V7" /></g></symbol><symbol viewBox="0 0 12 12" id="aside-bean-save"><g fill="none" fill-rule="evenodd"><path stroke="#03C75A" d="M11.5 6a5.5 5.5 0 10-11.001.001A5.5 5.5 0 0011.5 6z" /><path stroke="#03C75A" stroke-linecap="round" d="M3.278 6.895A2.953 2.953 0 006 8.705a2.954 2.954 0 002.722-1.81" /><path fill="#03C75A" d="M4.8 4.676a.6.6 0 11-1.2 0 .6.6 0 011.2 0m3.6 0a.6.6 0 11-1.2 0 .6.6 0 011.2 0" /></g></symbol><symbol viewBox="0 0 16 16" id="aside-profile"><g fill="none" fill-rule="evenodd"><circle cx="8" cy="8" r="8" fill="#FFF" /><circle cx="8" cy="8" r="6.667" fill="#5A5A5A" /><path fill="#FFF" d="M11.056 8.392c.017-.128.03-.256.03-.392s-.013-.264-.03-.392l.868-.66a.198.198 0 00.05-.256l-.823-1.384a.21.21 0 00-.251-.088l-1.024.4a3.026 3.026 0 00-.695-.392l-.156-1.06A.199.199 0 008.823 4H7.178a.199.199 0 00-.201.168l-.156 1.06c-.251.1-.481.236-.695.392l-1.024-.4a.203.203 0 00-.251.088l-.822 1.384a.194.194 0 00.049.256l.868.66c-.017.128-.03.26-.03.392s.013.264.03.392l-.868.66a.198.198 0 00-.05.256l.823 1.384c.05.088.16.12.25.088l1.025-.4c.214.16.444.292.695.392l.156 1.06a.199.199 0 00.201.168h1.645c.103 0 .19-.072.202-.168l.156-1.06c.251-.1.481-.236.695-.392l1.024.4c.095.036.202 0 .25-.088l.823-1.384a.198.198 0 00-.049-.256l-.868-.66zM8.001 9.4c-.794 0-1.44-.628-1.44-1.4 0-.772.646-1.4 1.44-1.4.794 0 1.44.628 1.44 1.4 0 .772-.646 1.4-1.44 1.4z" /></g></symbol><symbol viewBox="0 0 16 16" id="aside-rank-check"><g fill="none" fill-rule="evenodd"><path fill="red" d="M0 0h16v16H0z" /><path fill="#FFF" d="M7 3h2v7H7zm0 8h2v2H7z" /></g></symbol><symbol fill="none" viewBox="0 0 18 18" id="ico-post-comment-image-delete"><path fill="#000" fill-opacity=".6" d="M18 9A9 9 0 100 9a9 9 0 0018 0z" /><path fill="#fff" fill-rule="evenodd" d="M6.177 7.033L8.144 9l-1.967 1.967a.606.606 0 00.856.856L9 9.855l1.967 1.968a.606.606 0 00.856-.856L9.856 9l1.967-1.967a.606.606 0 00-.856-.856L9 8.144 7.033 6.177a.608.608 0 00-.856 0 .606.606 0 000 .856z" clip-rule="evenodd" /></symbol><symbol fill="none" viewBox="0 0 16 16" id="icon_search_delete"><g mask="url(#icon_search_delete_a)"><path fill="#8E8E93" d="M8 0a8 8 0 110 16A8 8 0 018 0zM4.715 4.714a.735.735 0 000 1.038L6.963 8l-2.248 2.248a.734.734 0 00.402 1.243l.117.009c.196 0 .38-.076.518-.215L8 9.037l2.248 2.248c.11.111.25.182.402.206l.117.009a.734.734 0 00.519-1.252L9.036 8l2.248-2.248a.735.735 0 00-1.037-1.038L8 6.963 5.752 4.714a.735.735 0 00-1.037 0z" /></g></symbol><mask id="icon_search_delete_a" style="mask-type:alpha" width="16" height="16" x="0" y="0" maskUnits="userSpaceOnUse"><path fill="#fff" d="M8 0a8 8 0 110 16A8 8 0 018 0zM4.715 4.714a.735.735 0 000 1.038L6.963 8l-2.248 2.248a.734.734 0 00.402 1.243l.117.009c.196 0 .38-.076.518-.215L8 9.037l2.248 2.248c.11.111.25.182.402.206l.117.009a.734.734 0 00.519-1.252L9.036 8l2.248-2.248a.735.735 0 00-1.037-1.038L8 6.963 5.752 4.714a.735.735 0 00-1.037 0z" /></mask><symbol viewBox="0 0 13 12" id="list-card-cmt"><g fill="none" fill-rule="evenodd"><path stroke="#999" d="M8.02.5H4.487C2.227.693.5 2.423.5 4.483.5 6.6 2.323 8.359 4.66 8.477l.252.012 1.332 2.007 1.333-2.008.253-.012c2.342-.11 4.172-1.87 4.172-3.992C12 2.426 10.276.697 8.02.5z" /><path fill="#999" d="M6.784 4.5a.551.551 0 01-.561.539.55.55 0 01-.562-.54.55.55 0 01.562-.538.55.55 0 01.56.538m2.628.001a.55.55 0 01-.56.539.551.551 0 01-.562-.54.55.55 0 01.561-.538.55.55 0 01.561.538M4.156 4.5a.55.55 0 01-.562.539.55.55 0 01-.56-.54.55.55 0 01.56-.538.55.55 0 01.562.538" /></g></symbol><symbol viewBox="0 0 13 10" id="list-card-like"><path fill="none" stroke="#999" d="M6.031 9.111l4.925-4.727c.824-.91.774-2.32-.122-3.193A2.43 2.43 0 009.122.5c-.65 0-1.257.245-1.714.691L6.043 2.523l-.35-.34-1.02-.992A2.434 2.434 0 002.962.5a2.43 2.43 0 00-1.713.691 2.31 2.31 0 00-.003 3.324L6.03 9.11z" /></symbol><symbol viewBox="0 0 13 10" id="list-card-like-on"><path fill="#FF2F3B" fill-rule="evenodd" d="M9.79 0c-.78 0-1.513.295-2.064.833l-1.016.992L5.69.833A2.934 2.934 0 003.628 0a2.93 2.93 0 00-2.061.833 2.811 2.811 0 00-.001 4.042l5.133 4.93 5.295-5.085c1.002-1.108.948-2.823-.143-3.887A2.93 2.93 0 009.789 0z" /></symbol><symbol viewBox="0 0 40 40" id="list-card-play"><defs><filter id="list-card-play_a" width="103.9%" height="103.9%" x="-2%" y="-2%" filterUnits="objectBoundingBox"><feOffset in="SourceAlpha" result="shadowOffsetOuter1"></feOffset><feGaussianBlur in="shadowOffsetOuter1" result="shadowBlurOuter1" stdDeviation=".25"></feGaussianBlur><feColorMatrix in="shadowBlurOuter1" values="0 0 0 0 0 0 0 0 0 0 0 0 0 0 0 0 0 0 0.15 0"></feColorMatrix></filter><filter id="list-card-play_c" width="114.5%" height="111.6%" x="-7.2%" y="-5.8%" filterUnits="objectBoundingBox"><feOffset in="SourceAlpha" result="shadowOffsetOuter1"></feOffset><feGaussianBlur in="shadowOffsetOuter1" result="shadowBlurOuter1" stdDeviation=".25"></feGaussianBlur><feColorMatrix in="shadowBlurOuter1" values="0 0 0 0 0 0 0 0 0 0 0 0 0 0 0 0 0 0 0.198284647 0"></feColorMatrix></filter><circle id="list-card-play_b" cx="19" cy="19" r="19" /><path id="list-card-play_d" d="M15.545 24.622c0 .16.086.307.22.38a.362.362 0 00.412-.044l9.58-6.054a.44.44 0 00.152-.336.433.433 0 00-.152-.336l-9.58-6.054a.37.37 0 00-.412-.043.428.428 0 00-.22.38v12.107z" /></defs><g fill="none" fill-rule="evenodd"><g transform="translate(1 1)"><use fill="#000" filter="url(#list-card-play_a)" xlink:href="#list-card-play_b" /><use fill="#FFF" xlink:href="#list-card-play_b" /></g><g transform="translate(1 1)"><use fill="#000" filter="url(#list-card-play_c)" xlink:href="#list-card-play_d" /><use fill="#363838" xlink:href="#list-card-play_d" /></g></g></symbol><symbol viewBox="0 0 30 16" id="list-i-selected"><defs><path id="list-i-selected_a" d="M0 0h30v16H0z" /></defs><g fill="none" fill-rule="evenodd"><use fill="#FFF" xlink:href="#list-i-selected_a" /><path stroke="#03C75A" d="M.5.5h29v15H.5z" /><path fill="#03C75A" d="M14.63 13h-1.1V7.938h-.987v4.59h-1.088V3.203h1.088v3.771h.988V3h1.1v10zm-3.478-2.952l-.663.82c-.707-.438-1.582-1.392-1.84-2.324-.236.988-1.089 2.054-1.93 2.56L6 10.328c1.28-.808 2.065-1.987 2.099-3.872h-1.74v-.932h4.534v.932H9.221c.045 1.83.853 2.985 1.93 3.591zM9.973 4.751H7.358v-.932h2.615v.932zM24.215 8.87h-1.1V6.378h-.987V8.78h-1.089v-5.6h1.089v2.244h.988V3h1.1v5.87zm-4.32-3.244v.898h-2.57v1.033c1.301 0 2.311-.079 3.086-.247l.146.898c-.853.18-2.2.269-3.435.28l-.931-.011V3.718h3.85v.92h-2.717v.988h2.57zM24.215 13h-1.144v-2.682h-5.668v-.92h6.812V13z" /></g></symbol><symbol viewBox="0 0 12 12" id="new-12-x-12"><g fill="none" fill-rule="evenodd"><rect width="12" height="12" fill="#FF4947" rx="6" /><path fill="#FFF" d="M4 8.479h.815V4.614h.022l2.25 3.865H8V3.35h-.815v3.619h-.022L5.032 3.35H4z" /></g></symbol><symbol viewBox="0 0 12 12" id="newerror-12-x-12"><g fill="none" fill-rule="evenodd"><rect width="12" height="12" fill="#FF4947" rx="6" /><path fill="#FFF" d="M3 5h6v2H3z" /></g></symbol></defs><use id="aside-19-usage" xlink:href="#aside-19" class="sprite-symbol-usage" /><use id="aside-bean-put-usage" xlink:href="#aside-bean-put" class="sprite-symbol-usage" /><use id="aside-bean-save-usage" xlink:href="#aside-bean-save" class="sprite-symbol-usage" /><use id="aside-profile-usage" xlink:href="#aside-profile" class="sprite-symbol-usage" /><use id="aside-rank-check-usage" xlink:href="#aside-rank-check" class="sprite-symbol-usage" /><use id="ico-post-comment-image-delete-usage" xlink:href="#ico-post-comment-image-delete" class="sprite-symbol-usage" /><use id="icon_search_delete-usage" xlink:href="#icon_search_delete" class="sprite-symbol-usage" /><use id="list-card-cmt-usage" xlink:href="#list-card-cmt" class="sprite-symbol-usage" /><use id="list-card-like-usage" xlink:href="#list-card-like" class="sprite-symbol-usage" /><use id="list-card-like-on-usage" xlink:href="#list-card-like-on" class="sprite-symbol-usage" /><use id="list-card-play-usage" xlink:href="#list-card-play" class="sprite-symbol-usage" /><use id="list-i-selected-usage" xlink:href="#list-i-selected" class="sprite-symbol-usage" /><use id="new-12-x-12-usage" xlink:href="#new-12-x-12" class="sprite-symbol-usage" /><use id="newerror-12-x-12-usage" xlink:href="#newerror-12-x-12" class="sprite-symbol-usage" /></svg>